{
  "accessors": [
    {
      "bufferView": 0,
      "byteOffset": 0,
      "componentType": 5126,
      "normalized": false,
      "count": 826,
      "type": "VEC3",
      "max": [
        60.15666198730469,
        69.48749542236328,
        79.70130920410156
      ],
      "min": [
        -63.91477966308594,
        -69.35614776611328,
        -74.29886627197266
      ],
      "name": "part0_vertices"
    },
    {
      "bufferView": 1,
      "byteOffset": 0,
      "componentType": 5126,
      "normalized": false,
      "count": 826,
      "type": "VEC3",
      "max": [
        0.998291015625,
        0.999267578125,
        0.99951171875
      ],
      "min": [
        -0.999755859375,
        -0.999755859375,
        -0.998779296875
      ],
      "name": "part0_normals"
    },
    {
      "bufferView": 2,
      "byteOffset": 0,
      "componentType": 5126,
      "normalized": false,
      "count": 826,
      "type": "VEC2",
      "max": [
        0.1240234375,
        0.25
      ],
      "min": [
        0.0,
        0.00091552734375
      ],
      "name": "part0_uvs"
    },
    {
      "bufferView": 3,
      "byteOffset": 0,
      "componentType": 5123,
      "normalized": false,
      "count": 826,
      "type": "VEC4",
      "max": [
        12,
        13,
        11,
        14
      ],
      "min": [
        0,
        0,
        0,
        0
      ],
      "name": "part0_joints"
    },
    {
      "bufferView": 4,
      "byteOffset": 0,
      "componentType": 5126,
      "normalized": false,
      "count": 826,
      "type": "VEC4",
      "max": [
        1.0,
        1.0,
        1.0,
        1.0
      ],
      "min": [
        0.0,
        0.0,
        0.0,
        0.0
      ],
      "name": "part0_weights"
    },
    {
      "bufferView": 5,
      "byteOffset": 0,
      "componentType": 5123,
      "normalized": false,
      "count": 3300,
      "type": "SCALAR",
      "max": [
        825
      ],
      "min": [
        0
      ],
      "name": "part0_indices"
    },
    {
      "bufferView": 6,
      "byteOffset": 0,
      "componentType": 5126,
      "normalized": false,
      "count": 15,
      "type": "MAT4",
      "max": [
        1.0,
        0.0,
        0.0,
        0.0,
        0.0,
        1.0,
        0.0,
        0.0,
        0.0,
        0.0,
        1.0,
        0.0,
        0.0,
        0.0,
        0.0,
        1.0
      ],
      "min": [
        1.0,
        0.0,
        0.0,
        0.0,
        0.0,
        1.0,
        0.0,
        0.0,
        0.0,
        0.0,
        1.0,
        0.0,
        0.0,
        0.0,
        0.0,
        1.0
      ],
      "name": "inverse_matrix"
    }
  ],
  "asset": {
    "generator": "klonoa2-tools (https://github.com/evilarceus/klonoa2-tools)",
    "copyright": "Models by Namco, extracted by t4ils",
    "version": "2.0"
  },
  "bufferViews": [
    {
      "buffer": 0,
      "byteOffset": 0,
      "byteLength": 9912,
      "byteStride": 12,
      "target": 34962,
      "name": "vertices"
    },
    {
      "buffer": 0,
      "byteOffset": 9912,
      "byteLength": 9912,
      "byteStride": 12,
      "target": 34962,
      "name": "normals"
    },
    {
      "buffer": 0,
      "byteOffset": 19824,
      "byteLength": 6608,
      "byteStride": 8,
      "target": 34962,
      "name": "uvs"
    },
    {
      "buffer": 0,
      "byteOffset": 26432,
      "byteLength": 6608,
      "byteStride": 8,
      "name": "joints"
    },
    {
      "buffer": 0,
      "byteOffset": 33040,
      "byteLength": 13216,
      "byteStride": 16,
      "target": 34962,
      "name": "weights"
    },
    {
      "buffer": 0,
      "byteOffset": 46256,
      "byteLength": 6600,
      "target": 34963,
      "name": "indices"
    },
    {
      "buffer": 0,
      "byteOffset": 52856,
      "byteLength": 960,
      "name": "inverse_matrix"
    }
  ],
  "buffers": [
    {
      "uri": "data:application/gltf-buffer;base64,",
      "byteLength": 53816
    }
  ],
  "images": [
    {
      "uri": "Joilant Tree.png",
      "name": "Joilant Tree.png"
    }
  ],
  "materials": [
    {
      "pbrMetallicRoughness": {
        "baseColorFactor": [
          1,
          1,
          1,
          1
        ],
        "metallicFactor": 0,
        "roughnessFactor": 1,
        "baseColorTexture": {
          "index": 0,
          "texCoord": 0
        }
      },
      "emissiveFactor": [
        0,
        0,
        0
      ],
      "alphaMode": "OPAQUE",
      "doubleSided": true,
      "name": "mtl0"
    }
  ],
  "meshes": [
    {
      "primitives": [
        {
          "attributes": {
            "POSITION": 0,
            "NORMAL": 1,
            "TEXCOORD_0": 2,
            "JOINTS_0": 3,
            "WEIGHTS_0": 4
          },
          "indices": 5,
          "mode": 4,
          "material": 0
        }
      ],
      "name": "part0"
    }
  ],
  "nodes": [
    {
      "mesh": 0,
      "skin": 0,
      "name": "part0"
    },
    {
      "children": [
        2,
        3,
        4,
        5,
        6,
        7,
        8,
        9,
        10,
        11,
        12,
        13,
        14,
        15
      ],
      "name": "root_joint"
    },
    {
      "translation": [
        0.0,
        0.0,
        0.0
      ],
      "name": "joint0"
    },
    {
      "translation": [
        0.0,
        0.0,
        0.0
      ],
      "name": "joint1"
    },
    {
      "translation": [
        0.0,
        0.0,
        0.0
      ],
      "name": "joint2"
    },
    {
      "translation": [
        0.0,
        0.0,
        0.0
      ],
      "name": "joint3"
    },
    {
      "translation": [
        0.0,
        0.0,
        0.0
      ],
      "name": "joint4"
    },
    {
      "translation": [
        0.0,
        0.0,
        0.0
      ],
      "name": "joint5"
    },
    {
      "translation": [
        0.0,
        0.0,
        0.0
      ],
      "name": "joint6"
    },
    {
      "translation": [
        0.0,
        0.0,
        0.0
      ],
      "name": "joint7"
    },
    {
      "translation": [
        0.0,
        0.0,
        0.0
      ],
      "name": "joint8"
    },
    {
      "translation": [
        0.0,
        0.0,
        0.0
      ],
      "name": "joint9"
    },
    {
      "translation": [
        0.0,
        0.0,
        0.0
      ],
      "name": "joint10"
    },
    {
      "translation": [
        0.0,
        -0.0,
        -0.0
      ],
      "name": "joint11"
    },
    {
      "translation": [
        0.0,
        0.0,
        0.0
      ],
      "name": "joint12"
    },
    {
      "translation": [
        0.0,
        0.0,
        0.0
      ],
      "name": "joint13"
    }
  ],
  "samplers": [
    {
      "magFilter": 9728,
      "minFilter": 9728,
      "wrapS": 10497,
      "wrapT": 10497
    }
  ],
  "scene": 0,
  "scenes": [
    {
      "nodes": [
        0,
        1
      ]
    }
  ],
  "skins": [
    {
      "inverseBindMatrices": 6,
      "skeleton": 1,
      "joints": [
        1,
        2,
        3,
        4,
        5,
        6,
        7,
        8,
        9,
        10,
        11,
        12,
        13,
        14,
        15
      ]
    }
  ],
  "textures": [
    {
      "sampler": 0,
      "source": 0,
      "name": "Joilant Tree.png"
    }
  ]
}