# Blender v2.91.2 OBJ File: 'Shell.blend'
# www.blender.org
mtllib Shell.mtl
o skinned_skinnned-mesh
v -0.150000 0.470000 -0.160000
v 0.000000 0.290000 -0.440000
v 0.160000 0.470000 -0.160000
v 0.350000 0.230000 -0.310000
v -0.150000 0.490000 0.150000
v -0.360000 0.290000 0.260000
v 0.160000 0.490000 0.150000
v 0.370000 0.290000 0.260000
v 0.190000 -0.000000 0.250000
v -0.180000 -0.000000 0.250000
v 0.270000 0.100000 -0.390000
v 0.190000 0.000000 -0.270000
v -0.180000 0.000000 -0.270000
v -0.280000 0.100000 0.370000
v 0.000000 0.060000 0.450000
v 0.290000 0.100000 0.370000
v -0.400000 0.170000 -0.380000
v 0.000000 0.220000 -0.560000
v 0.000000 0.150000 -0.450000
v -0.500000 0.140000 -0.060000
v -0.260000 0.100000 -0.390000
v -0.140000 0.330000 0.540000
v 0.000000 0.400000 0.400000
v -0.340000 0.230000 -0.310000
v -0.360000 0.060000 0.180000
v -0.440000 0.160000 0.320000
v -0.360000 0.080000 -0.190000
v 0.150000 0.330000 0.540000
v 0.410000 0.170000 -0.380000
v 0.370000 0.080000 -0.190000
v 0.510000 0.140000 -0.060000
v 0.450000 0.160000 0.320000
v 0.370000 0.060000 0.180000
vt 0.806641 0.904297
vt 0.511719 1.119141
vt 0.207031 0.902344
vt 0.191406 0.304688
vt 0.791016 0.306641
vt 0.966797 1.023438
vt 1.093750 0.810547
vt -0.085938 0.814453
vt 0.050781 1.025391
vt 0.910156 0.156250
vt 0.056641 0.158203
vt -0.095703 0.386719
vt 0.480469 0.089844
vt 1.078125 0.382812
vt 0.755859 0.205078
vt 0.457031 -0.314453
vt 1.105469 -0.035156
vt 0.751953 0.851562
vt 0.154297 0.205078
vt 0.152344 0.851562
vt -0.191406 -0.035156
vt 1.136719 1.152344
vt 0.451172 1.427734
vt -0.230469 1.150391
vt 0.000000 1.000000
vt 0.000000 1.000000
vt 0.000000 1.000000
vt 0.000000 1.000000
vt 0.000000 1.000000
vt 0.000000 1.000000
vt 0.000000 1.000000
vt 0.000000 1.000000
vt 0.000000 1.000000
vt 0.000000 1.000000
vt 0.000000 1.000000
vt 0.000000 1.000000
vt 0.000000 1.000000
vt 0.000000 1.000000
vt 0.000000 1.000000
vt 0.000000 1.000000
vt 0.000000 1.000000
vt 0.000000 1.000000
vt 0.000000 1.000000
vt 0.000000 1.000000
vt 0.000000 1.000000
vt 0.000000 1.000000
vt 0.000000 1.000000
vt 0.000000 1.000000
vt 0.000000 1.000000
vn 0.2037 -0.9536 0.2215
vn -0.0053 -0.7035 0.7107
vn -0.2042 -0.9540 0.2193
vn -0.1917 -0.9303 -0.3128
vn 0.1917 -0.9303 -0.3128
vn 0.3810 -0.6621 0.6453
vn 0.4802 -0.8653 0.1437
vn -0.4802 -0.8653 0.1437
vn -0.3842 -0.6614 0.6441
vn 0.2855 -0.6279 -0.7240
vn -0.2865 -0.6314 -0.7206
vn -0.5402 -0.8085 -0.2333
vn -0.0013 -0.7827 -0.6223
vn 0.5402 -0.8085 -0.2333
vn -0.3815 0.8787 -0.2868
vn -0.0052 0.8253 -0.5646
vn -0.5242 0.7919 -0.3132
vn -0.3721 0.9146 0.1582
vn 0.3817 0.8780 -0.2887
vn 0.3724 0.9138 0.1621
vn 0.5213 0.7927 -0.3160
vn -0.6758 0.7087 0.2026
vn -0.0068 0.9308 0.3656
vn 0.6742 0.7100 0.2033
vn -0.3499 0.4132 0.8407
vn 0.3505 0.4158 0.8391
vn -0.7738 0.0022 -0.6334
vn -0.9857 -0.1120 -0.1261
vn -0.0043 0.0640 -0.9979
vn 0.7717 0.0033 -0.6360
vn -0.8568 -0.1451 0.4948
vn 0.8568 -0.1451 0.4948
vn 0.9857 -0.1120 -0.1261
usemtl Shell_front
s 1
f 9/1/1 15/2/2 10/3/3
f 13/4/4 12/5/5 9/1/1
f 9/1/1 10/3/3 13/4/4
f 15/2/2 9/1/1 16/6/6
f 12/5/5 33/7/7 9/1/1
f 33/7/7 16/6/6 9/1/1
f 13/4/4 10/3/3 25/8/8
f 14/9/9 10/3/3 15/2/2
f 10/3/3 14/9/9 25/8/8
f 11/10/10 12/5/5 13/4/4
f 13/4/4 21/11/11 11/10/10
f 25/8/8 27/12/12 13/4/4
f 27/12/12 21/11/11 13/4/4
f 21/11/11 19/13/13 11/10/10
f 12/5/5 11/10/10 30/14/14
f 12/5/5 30/14/14 33/7/7
usemtl Shell_back
f 1/15/15 2/16/16 24/17/17
f 24/17/17 5/18/18 1/15/15
f 1/15/15 3/19/19 2/16/16
f 1/15/15 7/20/20 3/19/19
f 1/15/15 5/18/18 7/20/20
f 2/16/16 3/19/19 4/21/21
f 4/21/21 3/19/19 7/20/20
f 5/18/18 24/17/17 6/22/22
f 5/18/18 23/23/23 7/20/20
f 23/23/23 5/18/18 6/22/22
f 8/24/24 7/20/20 23/23/23
f 8/24/24 4/21/21 7/20/20
usemtl Skin
f 22/25/25 14/26/9 15/27/2
f 28/28/26 22/25/25 15/27/2
f 15/27/2 16/29/6 28/28/26
usemtl Shell_rim
f 24/30/17 17/31/27 20/32/28
f 18/33/29 17/31/27 24/30/17
f 19/34/13 17/31/27 18/33/29
f 20/32/28 17/31/27 21/35/11
f 17/31/27 19/34/13 21/35/11
f 19/34/13 18/33/29 29/36/30
f 11/37/10 19/34/13 29/36/30
f 20/32/28 21/35/11 27/38/12
f 6/39/22 26/40/31 22/25/25
f 22/25/25 23/41/23 6/39/22
f 23/41/23 22/25/25 28/28/26
f 22/25/25 26/40/31 14/26/9
f 6/39/22 20/32/28 26/40/31
f 20/32/28 6/39/22 24/30/17
f 18/33/29 2/42/16 4/43/21
f 25/44/8 14/26/9 26/40/31
f 26/40/31 20/32/28 25/44/8
f 20/32/28 27/38/12 25/44/8
f 18/33/29 24/30/17 2/42/16
f 8/45/24 23/41/23 28/28/26
f 4/43/21 29/36/30 18/33/29
f 16/29/6 32/46/32 28/28/26
f 28/28/26 32/46/32 8/45/24
f 11/37/10 29/36/30 31/47/33
f 30/48/14 11/37/10 31/47/33
f 31/47/33 29/36/30 4/43/21
f 4/43/21 8/45/24 31/47/33
f 33/49/7 31/47/33 32/46/32
f 33/49/7 30/48/14 31/47/33
f 32/46/32 31/47/33 8/45/24
f 33/49/7 32/46/32 16/29/6
